<?xml version="1.0" encoding="UTF-8"?>
<svg xmlns="http://www.w3.org/2000/svg" xmlns:xlink="http://www.w3.org/1999/xlink" width="8px" height="9px" viewBox="0 0 8 9" version="1.1">
<g id="surface1">
<path style=" stroke:none;fill-rule:nonzero;fill:rgb(0%,0%,0%);fill-opacity:1;" d="M 1.789062 7.875 L 0.132812 7.875 L 0.132812 2.617188 L 1.789062 2.617188 Z M 0.960938 1.898438 C 0.429688 1.898438 0 1.46875 0 0.945312 C 0 0.421875 0.429688 0 0.960938 0 C 1.492188 0 1.921875 0.421875 1.921875 0.945312 C 1.921875 1.46875 1.492188 1.898438 0.960938 1.898438 Z M 8 7.875 L 6.34375 7.875 L 6.34375 5.316406 C 6.34375 4.707031 6.332031 3.921875 5.480469 3.921875 C 4.617188 3.921875 4.488281 4.585938 4.488281 5.273438 L 4.488281 7.875 L 2.828125 7.875 L 2.828125 2.617188 L 4.421875 2.617188 L 4.421875 3.335938 L 4.445312 3.335938 C 4.664062 2.921875 5.207031 2.484375 6.011719 2.484375 C 7.691406 2.484375 8 3.574219 8 4.988281 Z M 8 7.875 "/>
</g>
</svg>
