<?xml version="1.0" encoding="UTF-8"?>
<svg xmlns="http://www.w3.org/2000/svg" xmlns:xlink="http://www.w3.org/1999/xlink" width="7px" height="9px" viewBox="0 0 7 9" version="1.1">
<g id="surface1">
<path style=" stroke:none;fill-rule:nonzero;fill:rgb(0%,0%,0%);fill-opacity:1;" d="M 3.71875 0.113281 C 1.847656 0.113281 0 1.316406 0 3.261719 C 0 4.5 0.722656 5.203125 1.160156 5.203125 C 1.339844 5.203125 1.445312 4.71875 1.445312 4.582031 C 1.445312 4.417969 1.011719 4.070312 1.011719 3.390625 C 1.011719 1.976562 2.128906 0.972656 3.570312 0.972656 C 4.8125 0.972656 5.730469 1.652344 5.730469 2.902344 C 5.730469 3.835938 5.34375 5.589844 4.085938 5.589844 C 3.632812 5.589844 3.242188 5.273438 3.242188 4.816406 C 3.242188 4.152344 3.722656 3.511719 3.722656 2.824219 C 3.722656 1.660156 2.011719 1.871094 2.011719 3.277344 C 2.011719 3.574219 2.050781 3.902344 2.1875 4.167969 C 1.9375 5.214844 1.421875 6.769531 1.421875 7.84375 C 1.421875 8.175781 1.472656 8.503906 1.503906 8.835938 C 1.566406 8.902344 1.535156 8.894531 1.628906 8.863281 C 2.546875 7.648438 2.515625 7.414062 2.929688 5.824219 C 3.15625 6.238281 3.734375 6.457031 4.195312 6.457031 C 6.128906 6.457031 7 4.640625 7 3 C 7 1.253906 5.4375 0.113281 3.71875 0.113281 Z M 3.71875 0.113281 "/>
</g>
</svg>
